HIERARCHY
ROOT Hips
{
	OFFSET 0.000000 103.266502 0.000000
	CHANNELS 6 Xposition Yposition Zposition Xrotation Yrotation Zrotation 
	JOINT Spine
	{
		OFFSET -0.002400 12.777504 0.315300
		CHANNELS 3 Xrotation Yrotation Zrotation
		JOINT Spine1
		{
			OFFSET -0.002067 5.816869 0.032633
			CHANNELS 3 Xrotation Yrotation Zrotation
			JOINT Spine1_split
			{
				OFFSET -0.002067 5.816869 0.032633
				CHANNELS 3 Xrotation Yrotation Zrotation
				JOINT Spine2
				{
					OFFSET -0.002067 5.816869 0.032633
					CHANNELS 3 Xrotation Yrotation Zrotation
					JOINT Neck
					{
						OFFSET -0.003700 21.199493 -0.826900
						CHANNELS 3 Xrotation Yrotation Zrotation
						JOINT Head
						{
							OFFSET 0.000000 20.442200 4.834800
							CHANNELS 3 Xrotation Yrotation Zrotation
							JOINT HeadTop_End
							{
								OFFSET 0.000000 34.668396 4.968400
								CHANNELS 3 Xrotation Yrotation Zrotation
								End Site
								{
									OFFSET 0.000000 0.000000 0.000000
								}
							}
						}
					}
					JOINT LeftShoulder
					{
						OFFSET 3.288150 8.794197 -1.372250
						CHANNELS 3 Xrotation Yrotation Zrotation
						JOINT LeftShoulder_split
						{
							OFFSET 3.288150 8.794197 -1.372250
							CHANNELS 3 Xrotation Yrotation Zrotation
							JOINT LeftArm
							{
								OFFSET 11.953299 -2.279007 -0.146200
								CHANNELS 3 Xrotation Yrotation Zrotation
								JOINT LeftForeArm
								{
									OFFSET 18.448900 0.000000 0.000000
									CHANNELS 3 Xrotation Yrotation Zrotation
									JOINT LeftHand
									{
										OFFSET 29.527798 0.000000 0.000000
										CHANNELS 3 Xrotation Yrotation Zrotation
										JOINT LeftHandThumb1
										{
											OFFSET 10.739754 -2.369614 9.225399
											CHANNELS 3 Xrotation Yrotation Zrotation
											JOINT LeftHandThumb2
											{
												OFFSET 4.926170 -2.844131 2.844125
												CHANNELS 3 Xrotation Yrotation Zrotation
												JOINT LeftHandThumb3
												{
													OFFSET 4.614891 -2.664413 2.664409
													CHANNELS 3 Xrotation Yrotation Zrotation
													JOINT LeftHandThumb4
													{
														OFFSET 4.432465 -2.559082 2.559083
														CHANNELS 3 Xrotation Yrotation Zrotation
														End Site
														{
															OFFSET 0.000000 0.000000 0.000000
														}
													}
												}
											}
										}
										JOINT LeftHandIndex1
										{
											OFFSET 26.467674 0.187653 6.405298
											CHANNELS 3 Xrotation Yrotation Zrotation
											JOINT LeftHandIndex2
											{
												OFFSET 8.792900 0.000000 0.000000
												CHANNELS 3 Xrotation Yrotation Zrotation
												JOINT LeftHandIndex3
												{
													OFFSET 10.075203 0.000000 0.000000
													CHANNELS 3 Xrotation Yrotation Zrotation
													End Site
													{
														OFFSET 0.000000 0.000000 0.000000
													}
												}
											}
										}
										JOINT LeftHandMiddle1
										{
											OFFSET 25.764404 0.000000 0.000000
											CHANNELS 3 Xrotation Yrotation Zrotation
											JOINT LeftHandMiddle2
											{
												OFFSET 9.393974 0.000000 0.000000
												CHANNELS 3 Xrotation Yrotation Zrotation
												JOINT LeftHandMiddle3
												{
													OFFSET 10.771950 0.000000 0.000000
													CHANNELS 3 Xrotation Yrotation Zrotation
													End Site
													{
														OFFSET 0.000000 0.000000 0.000000
													}
												}
											}
										}
										JOINT LeftHandRing1
										{
											OFFSET 24.660927 0.144547 -6.225808
											CHANNELS 3 Xrotation Yrotation Zrotation
											JOINT LeftHandRing2
											{
												OFFSET 9.393799 0.000000 0.000000
												CHANNELS 3 Xrotation Yrotation Zrotation
												JOINT LeftHandRing3
												{
													OFFSET 9.928497 0.000000 0.000000
													CHANNELS 3 Xrotation Yrotation Zrotation
													End Site
													{
														OFFSET 0.000000 0.000000 0.000000
													}
												}
											}
										}
										JOINT LeftHandPinky1
										{
											OFFSET 23.655350 0.125290 -12.815412
											CHANNELS 3 Xrotation Yrotation Zrotation
											JOINT LeftHandPinky2
											{
												OFFSET 8.425102 0.000000 0.000000
												CHANNELS 3 Xrotation Yrotation Zrotation
												JOINT LeftHandPinky3
												{
													OFFSET 8.147003 0.000000 0.000000
													CHANNELS 3 Xrotation Yrotation Zrotation
													End Site
													{
														OFFSET 0.000000 0.000000 0.000000
													}
												}
											}
										}
									}
								}
							}
						}
					}
					JOINT RightShoulder
					{
						OFFSET -3.249400 8.794197 -1.372250
						CHANNELS 3 Xrotation Yrotation Zrotation
						JOINT RightShoulder_split
						{
							OFFSET -3.249400 8.794197 -1.372250
							CHANNELS 3 Xrotation Yrotation Zrotation
							JOINT RightArm
							{
								OFFSET -11.953299 -2.279007 -0.146200
								CHANNELS 3 Xrotation Yrotation Zrotation
								JOINT RightForeArm
								{
									OFFSET -18.448900 0.000000 0.000000
									CHANNELS 3 Xrotation Yrotation Zrotation
									JOINT RightHand
									{
										OFFSET -29.527802 0.000000 0.000000
										CHANNELS 3 Xrotation Yrotation Zrotation
										JOINT RightHandThumb1
										{
											OFFSET -10.739754 -2.369614 9.225399
											CHANNELS 3 Xrotation Yrotation Zrotation
											JOINT RightHandThumb2
											{
												OFFSET -4.926170 -2.844131 2.844125
												CHANNELS 3 Xrotation Yrotation Zrotation
												JOINT RightHandThumb3
												{
													OFFSET -4.614891 -2.664413 2.664409
													CHANNELS 3 Xrotation Yrotation Zrotation
													JOINT RightHandThumb4
													{
														OFFSET -4.432465 -2.559082 2.559083
														CHANNELS 3 Xrotation Yrotation Zrotation
														End Site
														{
															OFFSET 0.000000 0.000000 0.000000
														}
													}
												}
											}
										}
										JOINT RightHandIndex1
										{
											OFFSET -26.467674 0.187653 6.405298
											CHANNELS 3 Xrotation Yrotation Zrotation
											JOINT RightHandIndex2
											{
												OFFSET -8.792900 0.000000 0.000000
												CHANNELS 3 Xrotation Yrotation Zrotation
												JOINT RightHandIndex3
												{
													OFFSET -10.075203 0.000000 0.000000
													CHANNELS 3 Xrotation Yrotation Zrotation
													End Site
													{
														OFFSET 0.000000 0.000000 0.000000
													}
												}
											}
										}
										JOINT RightHandMiddle1
										{
											OFFSET -25.764404 0.000000 0.000000
											CHANNELS 3 Xrotation Yrotation Zrotation
											JOINT RightHandMiddle2
											{
												OFFSET -9.393974 0.000000 0.000000
												CHANNELS 3 Xrotation Yrotation Zrotation
												JOINT RightHandMiddle3
												{
													OFFSET -10.771950 0.000000 0.000000
													CHANNELS 3 Xrotation Yrotation Zrotation
													End Site
													{
														OFFSET 0.000000 0.000000 0.000000
													}
												}
											}
										}
										JOINT RightHandRing1
										{
											OFFSET -24.660927 0.144547 -6.225808
											CHANNELS 3 Xrotation Yrotation Zrotation
											JOINT RightHandRing2
											{
												OFFSET -9.393799 0.000000 0.000000
												CHANNELS 3 Xrotation Yrotation Zrotation
												JOINT RightHandRing3
												{
													OFFSET -9.928497 0.000000 0.000000
													CHANNELS 3 Xrotation Yrotation Zrotation
													End Site
													{
														OFFSET 0.000000 0.000000 0.000000
													}
												}
											}
										}
										JOINT RightHandPinky1
										{
											OFFSET -23.655350 0.125290 -12.815412
											CHANNELS 3 Xrotation Yrotation Zrotation
											JOINT RightHandPinky2
											{
												OFFSET -8.425102 0.000000 0.000000
												CHANNELS 3 Xrotation Yrotation Zrotation
												JOINT RightHandPinky3
												{
													OFFSET -8.147003 0.000000 0.000000
													CHANNELS 3 Xrotation Yrotation Zrotation
													End Site
													{
														OFFSET 0.000000 0.000000 0.000000
													}
												}
											}
										}
									}
								}
							}
						}
					}
				}
			}
		}
	}
	JOINT LeftUpLeg
	{
		OFFSET 11.394100 -6.187798 -0.413800
		CHANNELS 3 Xrotation Yrotation Zrotation
		JOINT LeftLeg
		{
			OFFSET 0.430247 -32.302673 3.732800
			CHANNELS 3 Xrotation Yrotation Zrotation
			JOINT LeftFoot
			{
				OFFSET -0.430247 -48.264931 -6.423300
				CHANNELS 3 Xrotation Yrotation Zrotation
				JOINT LeftToeBase
				{
					OFFSET 4.230900 -16.068199 23.438400
					CHANNELS 3 Xrotation Yrotation Zrotation
					JOINT LeftToe_End
					{
						OFFSET 4.510700 0.695400 19.974600
						CHANNELS 3 Xrotation Yrotation Zrotation
						End Site
						{
							OFFSET 0.000000 0.000000 0.000000
						}
					}
				}
			}
		}
	}
	JOINT RightUpLeg
	{
		OFFSET -11.333700 -6.187798 -0.413800
		CHANNELS 3 Xrotation Yrotation Zrotation
		JOINT RightLeg
		{
			OFFSET -0.430392 -32.302628 3.733000
			CHANNELS 3 Xrotation Yrotation Zrotation
			JOINT RightFoot
			{
				OFFSET 0.430392 -48.264973 -6.423500
				CHANNELS 3 Xrotation Yrotation Zrotation
				JOINT RightToeBase
				{
					OFFSET -4.230900 -16.068199 23.438400
					CHANNELS 3 Xrotation Yrotation Zrotation
					JOINT RightToe_End
					{
						OFFSET -4.510700 0.695400 19.974600
						CHANNELS 3 Xrotation Yrotation Zrotation
						End Site
						{
							OFFSET 0.000000 0.000000 0.000000
						}
					}
				}
			}
		}
	}
}
MOTION
Frames: 4
Frame Time: 0.016667
-0.412577 99.943710 -0.247360 -9.017468 -5.423020 8.599747 2.412280 1.352393 -5.298500 4.666352 1.729998 -2.802044 0.000000 0.000000 0.000000 4.685184 1.690013 -2.793393 -2.808737 -0.350888 -5.041334 -1.723852 -2.292228 2.025736 -0.000000 0.000000 -0.000000 4.034698 -13.464703 -7.420043 0.000000 0.000000 0.000000 5.772115 3.721070 -60.112925 11.491850 -25.077057 -5.820578 -8.196586 -3.557926 7.163537 -21.992154 17.035880 -2.008536 5.703908 22.366211 5.519997 -0.000000 0.000005 -0.000021 -0.000000 -0.000001 -0.000001 -2.899124 12.800598 -7.221985 2.739048 6.814376 -29.837640 -0.000001 -0.000001 -0.000001 -8.983034 7.076830 -9.539580 4.275432 7.169711 -39.702367 0.000001 -0.000001 -0.000001 -16.256866 8.648364 -21.626604 4.109026 6.928484 -36.756936 -0.000001 0.000000 0.000001 -21.808797 10.570007 -31.866931 1.910796 2.504674 -24.353794 -0.000000 -0.000000 -0.000001 3.919268 12.466707 7.900378 0.000000 0.000000 0.000000 -3.939683 -11.622637 68.565086 15.857370 12.603577 4.140648 -8.305450 0.914264 -6.259042 -21.991985 -17.035469 2.009232 5.703625 -22.367060 -5.520848 0.000005 -0.000000 -0.000016 0.000000 0.000000 0.000001 -2.899134 -12.801059 7.221832 2.738669 -6.813217 29.837811 -0.000000 0.000000 0.000000 -8.983055 -7.076433 9.538890 4.275413 -7.169933 39.704060 0.000000 0.000000 0.000003 -16.256646 -8.649606 21.626346 4.109541 -6.928326 36.756308 -0.000000 -0.000000 0.000001 -21.809416 -10.568766 31.865954 1.910741 -2.505953 24.353736 -0.000001 0.000000 0.000000 8.396251 15.384229 -13.298049 9.607271 -0.035801 -0.133353 -7.181406 -0.473127 4.590294 -0.000008 0.000002 -0.000000 -0.000000 0.000000 -0.000000 -10.865886 -12.175810 -25.727984 25.531360 0.338781 0.271697 -6.197339 -9.614394 9.295286 -0.000135 0.000007 0.000349 0.000000 -0.000002 -0.000000 
-0.464987 99.972565 -0.237152 -9.106547 -5.355167 8.489836 2.533374 1.316724 -5.255718 4.913429 1.686253 -2.761731 0.000000 0.000000 0.000000 4.931894 1.643645 -2.752654 -3.587673 -0.245977 -5.289811 -1.743662 -2.215875 1.752009 -0.000000 0.000000 0.000000 3.979140 -13.925286 -7.123388 0.000000 0.000000 0.000000 8.808453 0.870768 -59.276179 9.104187 -28.163812 -6.388883 -8.185924 -3.893778 7.156316 -21.796578 17.067012 -2.254225 5.203262 22.372771 5.475962 0.000001 0.000009 -0.000023 0.000000 -0.000003 0.000000 -2.942353 12.989532 -7.794511 2.737324 6.823870 -30.157508 0.000001 -0.000000 -0.000000 -8.964741 7.351984 -10.247533 4.392796 7.266432 -40.753922 0.000003 0.000001 0.000003 -16.096200 8.801840 -21.946421 4.244157 7.047115 -37.953807 0.000000 -0.000000 -0.000001 -21.489852 10.821471 -32.647235 2.037494 2.734378 -25.918456 0.000000 0.000000 0.000000 3.867133 12.882169 7.705442 0.000000 0.000000 0.000000 -3.144262 -10.625761 68.163102 17.220650 14.146987 3.950138 -8.237062 -0.271349 -5.322068 -21.973234 -16.867419 2.049163 5.973376 -23.678900 -5.152969 0.000005 -0.000000 -0.000016 -0.000000 -0.000002 -0.000001 -2.802271 -12.889477 8.069508 2.700036 -6.811027 29.794665 0.000001 0.000001 0.000001 -9.075012 -7.233168 10.442669 4.430272 -7.269916 40.816825 0.000001 -0.000000 -0.000001 -16.277753 -8.826608 22.153684 4.270813 -7.005735 38.208017 -0.000000 -0.000000 0.000000 -21.881018 -10.795292 31.748430 2.048325 -2.646572 25.644166 -0.000001 0.000000 0.000001 7.911158 15.444834 -13.033086 10.302473 -0.116160 -0.146284 -6.821012 -0.369845 4.776124 -0.000005 -0.000002 -0.000000 -0.000000 -0.000000 -0.000000 -10.832019 -12.141113 -25.510844 25.699348 0.204629 0.257452 -6.261642 -9.639578 8.915720 -0.000122 -0.000000 0.000331 0.000000 0.000002 0.000000 
-0.549605 100.103569 -0.177174 -9.290177 -5.212684 8.278460 2.770527 1.259561 -5.216003 5.395335 1.608661 -2.665655 0.000000 0.000000 0.000000 5.413139 1.560643 -2.655692 -4.963399 -0.057444 -5.756623 -1.813866 -2.079886 1.239585 -0.000000 0.000000 0.000000 3.884198 -14.711365 -6.633769 0.000000 0.000000 0.000000 14.149915 -3.920244 -57.208117 5.105500 -33.594955 -7.629387 -8.168627 -4.251240 7.302852 -21.332277 17.091710 -2.837963 3.958063 22.289156 5.402748 -0.000000 0.000007 -0.000021 -0.000000 -0.000000 -0.000001 -3.076567 13.365432 -9.160877 2.825253 6.942470 -31.688813 0.000001 0.000001 0.000001 -8.994084 7.873345 -11.761441 4.679763 7.511361 -43.257473 0.000002 -0.000002 -0.000001 -15.795525 9.131216 -22.750947 4.548035 7.323661 -40.771513 0.000000 0.000000 -0.000001 -20.863667 11.238474 -34.243649 2.364631 3.249446 -29.568299 -0.000000 -0.000001 -0.000002 3.778977 13.585870 7.369179 0.000000 0.000000 0.000000 -1.561296 -8.690972 67.291140 19.661265 17.108678 3.253670 -8.102056 -2.099959 -3.619080 -21.920095 -16.431922 2.146716 5.822820 -25.325648 -4.915324 0.000005 0.000002 -0.000015 0.000001 0.000001 -0.000000 -2.709175 -13.063783 9.415189 2.637328 -6.812450 29.750815 0.000000 -0.000000 -0.000001 -9.249259 -7.574079 11.793309 4.704356 -7.483147 42.958755 -0.000000 -0.000001 -0.000001 -16.291702 -9.133658 22.933011 4.484996 -7.133885 40.801685 0.000000 0.000000 0.000001 -22.155959 -11.243183 31.536701 2.308637 -2.917796 28.251694 -0.000000 0.000000 0.000001 6.496549 15.642860 -12.384705 12.357042 -0.166704 -0.178737 -5.981568 -0.203772 5.058269 -0.694098 0.005113 -0.421883 0.000000 -0.000001 0.000000 -10.710760 -12.141178 -25.250895 25.981466 0.094271 0.248879 -5.902588 -9.713109 8.842626 -0.153720 -0.001107 0.409486 0.000000 -0.000000 0.000000 
-0.601974 100.349052 0.016376 -9.511751 -5.025873 7.997978 3.028793 1.210073 -5.208952 5.918540 1.537688 -2.526865 0.000000 0.000000 0.000000 5.935774 1.483429 -2.515835 -6.201183 0.091968 -6.231189 -2.418391 -1.955304 0.684861 0.000000 -0.000000 0.000000 3.794425 -15.397644 -6.279941 0.000000 0.000000 0.000000 19.088017 -7.935481 -54.787949 2.088978 -38.551077 -8.015099 -8.160007 -4.316246 7.783474 -20.667464 17.055896 -3.671359 2.093574 21.990042 5.341689 0.000001 0.000008 -0.000022 0.000001 -0.000001 0.000001 -3.328972 13.761965 -11.122444 3.108018 7.224240 -34.978287 -0.000001 -0.000003 0.000001 -9.153367 8.386883 -13.672332 5.098722 7.862121 -46.821647 0.000001 0.000001 -0.000003 -15.503464 9.530019 -23.916881 4.949151 7.703903 -44.692335 -0.000002 0.000000 0.000000 -20.170259 11.554915 -36.157331 2.865201 3.935181 -34.609040 0.000000 0.000001 0.000001 3.699332 14.186510 7.099044 0.000000 0.000000 0.000000 0.249530 -6.540137 66.152069 22.073773 20.344046 2.093869 -7.944382 -3.252923 -1.946572 -21.837793 -15.758121 2.290955 4.826194 -25.921263 -5.103674 0.000006 0.000006 -0.000016 -0.000001 0.000004 -0.000001 -2.750370 -13.242982 10.381502 2.660932 -6.889631 30.409573 0.000001 0.000001 -0.000001 -9.463688 -7.971136 12.505463 4.961996 -7.753082 45.326331 0.000001 -0.000000 -0.000003 -16.257541 -9.400683 23.322053 4.532903 -7.232894 43.244178 0.000000 0.000000 0.000001 -22.702109 -11.736718 31.293847 2.545876 -3.202604 31.286098 -0.000000 0.000000 0.000001 5.842627 15.659042 -11.863761 13.512161 -0.193630 -0.201605 -5.487315 -0.110423 5.339450 -1.513150 0.018243 -0.690286 0.000000 0.000000 -0.000000 -10.405717 -12.387041 -25.066304 25.960473 0.075413 0.250905 -5.039777 -9.686993 9.249792 -0.429027 -0.008557 1.141975 0.000000 -0.000002 0.000000 
